<svg width="169" height="216" viewBox="0 0 169 216" fill="none" xmlns="http://www.w3.org/2000/svg">
  <path d="M93.258 76.3416L94.0294 77.4796L95.2301 76.8101C101.651 73.2308 107.525 69.8549 112.911 66.7593C119.868 62.7615 126.011 59.2313 131.465 56.3345C136.284 53.775 140.494 51.7501 144.169 50.37C147.856 48.9856 150.913 48.2857 153.448 48.2972C155.937 48.3084 157.908 49.003 159.53 50.4349C161.188 51.8985 162.607 54.2423 163.743 57.7707C166.026 64.865 167 76.1885 167 92.9998C167 158.906 117.854 197.975 86.9846 214.313C34.7946 187.843 19.4351 132.822 3.48138 57.2553C1.75034 42.7985 1.42368 31.6043 2.20967 23.1577C2.99979 14.6666 4.89978 9.12283 7.46183 5.81152C9.94465 2.6026 13.1301 1.38091 16.9717 1.68906C20.9207 2.00583 25.5921 3.95241 30.772 7.2537C41.1126 13.8441 52.9159 25.4627 64.0841 38.323C75.2314 51.1593 85.6615 65.1334 93.258 76.3416Z" stroke="black" stroke-opacity="0.38" stroke-width="3"/>
</svg>
